<mxfile host="app.diagrams.net" modified="2023-11-16T02:14:32.225Z" agent="Mozilla/5.0 (Windows NT 10.0; Win64; x64) AppleWebKit/537.36 (KHTML, like Gecko) Chrome/119.0.0.0 Safari/537.36" version="22.1.2" etag="uRUCayRSEkUH--qZX99a" type="github">
  <diagram name="페이지-1" id="kfk2GRc47J4M3Qw22oY7">
    <mxGraphModel>
      <root>
        <mxCell id="0" />
        <mxCell id="1" parent="0" />
      </root>
    </mxGraphModel>
  </diagram>
</mxfile>
